<?xml version="1.0" encoding="utf-8"?>
<!-- Generator: Adobe Illustrator 18.1.1, SVG Export Plug-In . SVG Version: 6.00 Build 0)  -->
<svg version="1.1" id="レイヤー_1" xmlns="http://www.w3.org/2000/svg" xmlns:xlink="http://www.w3.org/1999/xlink" x="0px"
	 y="0px" viewBox="0 0 400 200" enable-background="new 0 0 400 200" xml:space="preserve">
<g>
	<path d="M164.2,72.8v-3.2l2.2,0.1c0.1,0,0.2,0,0.2,0.2c0,0.2-0.2,0.2-0.3,0.2v2.7h1.8v1.9h-1.8v3.6h2.1v1.9h-7v-1.9h2.8v-3.6h-1.8
		v-1.3c-0.2,0.4-0.4,0.7-0.8,1.2c0.4,0.4,0.9,0.9,1.6,1.4c-0.3,0.3-1,1-1.2,1.4c-0.2-0.2-0.5-0.4-1.1-1v4.1h-2v-3
		c-0.3,0.2-0.5,0.4-0.7,0.5c-0.2-0.5-0.7-1.3-1-1.7c1.9-1.1,2.6-2.2,2.9-2.8h-2.4v-1.8h1.3v-2.1l2.1,0.1c0.1,0,0.2,0,0.2,0.2
		c0,0.1-0.1,0.2-0.3,0.2v1.6h1.2l0.8,0.7c-0.1,0.2-0.1,0.3-0.2,0.4H164.2z"/>
	<path d="M171.5,80.1v0.4h-1.9V69.8h10.5v10.6h-1.9v-0.4H171.5z M178.2,78.4v-6.9h-6.6v6.9H178.2z M175.3,71.7l1.9,0.1
		c0.1,0,0.2,0,0.2,0.1c0,0.1-0.1,0.2-0.2,0.3v0.4h0.8v1.6h-0.8v2.6c0,0.7,0,1.6-2.4,1.5c0-0.3-0.1-1.1-0.6-1.8
		c0.2,0,0.5,0.1,0.7,0.1c0.4,0,0.4-0.1,0.4-0.7v-1.7h-3.5v-1.6h3.5V71.7z M173.4,74.2c0.5,0.5,1.2,1.5,1.3,1.7c-0.5,0.3-1,0.6-1.5,1
		c-0.2-0.5-0.9-1.5-1.2-1.9L173.4,74.2z"/>
	<path d="M180.8,79.4c0.5-0.7,1.4-2.6,1.7-3.9c0.4,0.4,1.1,0.9,1.6,1.1c-0.2,0.8-0.7,1.9-1.4,3.5c0,0.1,0,0.2,0,0.2
		c0,0.1-0.1,0.1-0.1,0.1c-0.1,0-0.2,0-0.2-0.1L180.8,79.4z M181.8,72.3c0.8,0.4,1.4,0.9,2.1,1.4c-0.1,0.2-0.7,0.9-1,1.5
		c-0.5-0.4-1.4-1-2.1-1.4L181.8,72.3z M182.6,69.5c0.7,0.4,1.5,0.9,2,1.4c-0.3,0.3-1,1.3-1.2,1.6c-0.5-0.4-1.2-1.1-1.9-1.5
		L182.6,69.5z M190.2,75.9c0.9,1.1,1.8,2.8,2.2,3.6c-0.8,0.4-1.1,0.5-1.8,0.9c-0.1-0.3-0.2-0.6-0.4-1.1c-0.7,0.2-1.8,0.4-3,0.6
		c-0.3,0-1.8,0.2-2.1,0.2c-0.1,0.1-0.1,0.2-0.3,0.2c-0.1,0-0.2-0.2-0.2-0.2l-0.4-1.9c0.1,0,0.2,0,0.4,0c0.1,0,0.3,0,0.8,0
		c0.4-0.8,0.9-2,1.1-2.5h-2.3V74h2.9v-1h-2.3v-1.8h2.3v-1.6l2.1,0.1c0.1,0,0.3,0,0.3,0.2c0,0.1-0.1,0.2-0.3,0.2v1.1h2.7v1.8H189v1
		h3.1v1.8H189c0,0.2-0.4,0.2-0.5,0.2c-0.4,0.9-0.6,1.3-1,2.1c0.6-0.1,1.1-0.1,1.7-0.2c-0.4-0.7-0.5-0.8-0.7-1L190.2,75.9z"/>
	<path d="M199.6,69.6c0.1,0,0.3,0,0.3,0.2c0,0.1-0.2,0.2-0.3,0.3c0,0.3,0,0.6,0,1.1c0,2.6,0.1,5.4,4.7,7.5c-0.7,0.5-1.1,0.9-1.5,1.7
		c-2.5-1.3-3.5-2.9-4.2-4.3c-1.3,2.7-3.6,4-4.2,4.2c-0.7-1.1-1.3-1.5-1.6-1.7c4.3-1.8,4.7-4.5,4.7-7.7c0-0.7,0-1.1,0-1.6L199.6,69.6
		z"/>
</g>
<g>
	<path fill="#00B1ED" d="M56.7,75.8l-1.2,5.6c-2.7-3-6.1-4.5-10.3-4.5c-3.6,0-6.7,1.2-9.1,3.6c-2.5,2.4-3.9,5.6-4.2,9.5
		c-0.3,3.6,0.5,6.5,2.5,8.5c2,2,4.9,3,8.9,3c3.3,0,6.3-1,9-3l-1.3,6.1c-3.3,1.2-6.3,1.8-9,1.8c-5,0-8.9-1.5-11.6-4.6
		c-2.7-3-3.8-7-3.4-12c0.4-5.1,2.4-9.4,5.8-12.7c3.5-3.4,7.8-5.1,12.7-5.1C49.3,71.9,53.1,73.2,56.7,75.8z"/>
	<path fill="#00B1ED" d="M89.4,71.9l-4.2,20c-1,4.4-2.3,7.6-4,9.7c-2.8,3.2-6.3,4.8-10.8,4.8c-3.5,0-6.4-1.1-8.5-3.1
		c-2.1-2.1-3-4.8-2.7-7.9c0.1-0.7,0.1-1.4,0.3-2.1c0.1-0.7,0.3-1.5,0.4-2.4l3.9-18.9h5l-4.1,19.3c-0.1,0.6-0.2,1.1-0.3,1.6
		c-0.1,0.5-0.1,0.9-0.2,1.4c-0.2,2.2,0.3,4,1.5,5.3c1.2,1.3,2.9,1.9,5.1,1.9c2.6,0,4.6-0.8,6.1-2.4c1.5-1.6,2.6-4.3,3.4-8l4.1-19.1
		H89.4z"/>
	<path fill="#00B1ED" d="M97.7,71.9h7c3,0,5.3,0.5,6.8,1.5c1.2,0.8,2.2,2,2.8,3.5c0.6,1.5,0.8,3.1,0.7,4.8c-0.2,2.5-1.1,4.6-2.6,6.5
		c-2.3,2.8-5.6,4.2-10.1,4.2h-3.8l-2.9,13.9h-5.1L97.7,71.9z M101.9,76.8l-2.4,11.1h3.3c2.1,0,3.7-0.5,5-1.6
		c1.2-1.1,1.9-2.6,2.1-4.6c0.3-3.2-1.7-4.9-5.9-4.9H101.9z"/>
	<path fill="#00B1ED" d="M121,98.2l-4.9,8.1h-5.5l22.2-36.9l8.7,36.9h-5.3l-1.8-8.1H121z M123.6,93.7h9.7l-2.6-12.2L123.6,93.7z"/>
</g>
<g>
	<g>
		<path fill="#00B1ED" d="M35.2,116.4v1.9c-0.9-0.8-1.9-1.2-2.9-1.2c-1.1,0-2,0.4-2.7,1.2c-0.7,0.8-1.1,1.7-1.1,2.8
			c0,1.1,0.4,2,1.1,2.8c0.7,0.8,1.7,1.1,2.7,1.1c0.6,0,1-0.1,1.4-0.3c0.2-0.1,0.4-0.2,0.7-0.4c0.2-0.2,0.5-0.3,0.7-0.6v1.9
			c-0.9,0.5-1.9,0.8-2.9,0.8c-1.5,0-2.8-0.5-3.9-1.6c-1.1-1.1-1.6-2.3-1.6-3.8c0-1.3,0.4-2.5,1.3-3.6c1.1-1.3,2.5-1.9,4.2-1.9
			C33.4,115.6,34.3,115.9,35.2,116.4z"/>
		<path fill="#00B1ED" d="M38.4,114.8v11.5h-1.5v-11.5H38.4z"/>
		<path fill="#00B1ED" d="M40.1,123c0-1,0.3-1.8,1-2.5c0.7-0.7,1.5-1,2.5-1c1,0,1.8,0.3,2.5,1c0.7,0.7,1,1.5,1,2.5
			c0,1-0.3,1.8-1,2.5c-0.7,0.7-1.5,1-2.5,1c-1,0-1.8-0.3-2.5-1C40.4,124.9,40.1,124,40.1,123z M41.7,123c0,0.7,0.2,1.2,0.5,1.6
			c0.4,0.4,0.8,0.6,1.4,0.6c0.6,0,1.1-0.2,1.4-0.6c0.4-0.4,0.5-0.9,0.5-1.6c0-0.6-0.2-1.2-0.5-1.6c-0.4-0.4-0.8-0.6-1.4-0.6
			c-0.6,0-1.1,0.2-1.4,0.6C41.8,121.9,41.7,122.4,41.7,123z"/>
		<path fill="#00B1ED" d="M50.3,119.7v3.8c0,1.1,0.4,1.7,1.3,1.7c0.9,0,1.3-0.6,1.3-1.7v-3.8h1.5v3.9c0,0.5-0.1,1-0.2,1.4
			c-0.1,0.3-0.3,0.7-0.7,0.9c-0.5,0.5-1.2,0.7-2,0.7c-0.8,0-1.5-0.2-2-0.7c-0.3-0.3-0.5-0.6-0.7-0.9c-0.1-0.3-0.2-0.8-0.2-1.4v-3.9
			H50.3z"/>
		<path fill="#00B1ED" d="M61.3,114.8h1.5v11.5h-1.5v-0.7c-0.6,0.6-1.3,0.9-2.1,0.9c-0.9,0-1.7-0.3-2.3-1c-0.6-0.7-0.9-1.5-0.9-2.5
			c0-1,0.3-1.8,0.9-2.5c0.6-0.7,1.3-1,2.2-1c0.8,0,1.5,0.3,2.1,1V114.8z M57.7,123c0,0.6,0.2,1.2,0.5,1.6c0.4,0.4,0.8,0.6,1.3,0.6
			c0.6,0,1-0.2,1.4-0.6c0.4-0.4,0.5-0.9,0.5-1.5s-0.2-1.1-0.5-1.5c-0.4-0.4-0.8-0.6-1.4-0.6c-0.5,0-1,0.2-1.3,0.6
			C57.9,121.9,57.7,122.4,57.7,123z"/>
		<path fill="#00B1ED" d="M71,115.8v6.4c0,0.9,0.1,1.6,0.4,2c0.4,0.6,1.1,0.9,1.9,0.9c0.8,0,1.4-0.3,1.9-0.9c0.3-0.4,0.4-1.1,0.4-2
			v-6.4h1.6v6.8c0,1.1-0.3,2-1,2.7c-0.8,0.8-1.7,1.2-2.9,1.2c-1.1,0-2.1-0.4-2.9-1.2c-0.7-0.7-1-1.6-1-2.7v-6.8H71z"/>
		<path fill="#00B1ED" d="M81.1,121.2v5.2h-1.5v-5.2h-0.7v-1.4h0.7v-2.4h1.5v2.4h1.2v1.4H81.1z"/>
		<path fill="#00B1ED" d="M83.1,116.9c0-0.3,0.1-0.5,0.3-0.7c0.2-0.2,0.4-0.3,0.7-0.3c0.3,0,0.5,0.1,0.7,0.3
			c0.2,0.2,0.3,0.4,0.3,0.7c0,0.3-0.1,0.5-0.3,0.7c-0.2,0.2-0.4,0.3-0.7,0.3c-0.3,0-0.5-0.1-0.7-0.3
			C83.2,117.5,83.1,117.2,83.1,116.9z M84.9,119.7v6.7h-1.5v-6.7H84.9z"/>
		<path fill="#00B1ED" d="M88.3,114.8v11.5h-1.5v-11.5H88.3z"/>
		<path fill="#00B1ED" d="M90.1,116.9c0-0.3,0.1-0.5,0.3-0.7c0.2-0.2,0.4-0.3,0.7-0.3c0.3,0,0.5,0.1,0.7,0.3
			c0.2,0.2,0.3,0.4,0.3,0.7c0,0.3-0.1,0.5-0.3,0.7c-0.2,0.2-0.4,0.3-0.7,0.3c-0.3,0-0.5-0.1-0.7-0.3
			C90.2,117.5,90.1,117.2,90.1,116.9z M91.8,119.7v6.7h-1.5v-6.7H91.8z"/>
		<path fill="#00B1ED" d="M96,124.9h4v1.4h-7l4.3-5.2h-3.4v-1.4h6.4L96,124.9z"/>
		<path fill="#00B1ED" d="M106.3,119.7h1.5v6.7h-1.5v-0.7c-0.6,0.6-1.3,0.9-2,0.9c-0.9,0-1.7-0.3-2.3-1c-0.6-0.7-0.9-1.5-0.9-2.5
			c0-1,0.3-1.8,0.9-2.5c0.6-0.7,1.3-1,2.2-1c0.8,0,1.5,0.3,2.1,1V119.7z M102.6,123c0,0.6,0.2,1.2,0.5,1.6c0.4,0.4,0.8,0.6,1.3,0.6
			c0.6,0,1-0.2,1.4-0.6c0.4-0.4,0.5-0.9,0.5-1.5s-0.2-1.1-0.5-1.5c-0.4-0.4-0.8-0.6-1.4-0.6c-0.5,0-1,0.2-1.3,0.6
			C102.8,121.9,102.6,122.4,102.6,123z"/>
		<path fill="#00B1ED" d="M111.4,121.2v5.2h-1.5v-5.2h-0.7v-1.4h0.7v-2.4h1.5v2.4h1.2v1.4H111.4z"/>
		<path fill="#00B1ED" d="M113.4,116.9c0-0.3,0.1-0.5,0.3-0.7c0.2-0.2,0.4-0.3,0.7-0.3c0.3,0,0.5,0.1,0.7,0.3
			c0.2,0.2,0.3,0.4,0.3,0.7c0,0.3-0.1,0.5-0.3,0.7c-0.2,0.2-0.4,0.3-0.7,0.3c-0.3,0-0.5-0.1-0.7-0.3
			C113.5,117.5,113.4,117.2,113.4,116.9z M115.2,119.7v6.7h-1.5v-6.7H115.2z"/>
		<path fill="#00B1ED" d="M116.8,123c0-1,0.3-1.8,1-2.5c0.7-0.7,1.5-1,2.5-1c1,0,1.8,0.3,2.5,1c0.7,0.7,1,1.5,1,2.5
			c0,1-0.3,1.8-1,2.5c-0.7,0.7-1.5,1-2.5,1c-1,0-1.8-0.3-2.5-1C117.1,124.9,116.8,124,116.8,123z M118.4,123c0,0.7,0.2,1.2,0.5,1.6
			c0.4,0.4,0.8,0.6,1.4,0.6c0.6,0,1.1-0.2,1.4-0.6c0.4-0.4,0.5-0.9,0.5-1.6c0-0.6-0.2-1.2-0.5-1.6c-0.4-0.4-0.8-0.6-1.4-0.6
			c-0.6,0-1.1,0.2-1.4,0.6C118.5,121.9,118.4,122.4,118.4,123z"/>
		<path fill="#00B1ED" d="M125.5,119.7h1.5v0.6c0.5-0.5,1.1-0.8,1.8-0.8c0.8,0,1.4,0.2,1.8,0.7c0.4,0.4,0.6,1.1,0.6,2v4.1h-1.5v-3.7
			c0-0.7-0.1-1.1-0.3-1.4c-0.2-0.3-0.5-0.4-1-0.4c-0.5,0-0.9,0.2-1.1,0.5c-0.2,0.3-0.3,0.9-0.3,1.7v3.2h-1.5V119.7z"/>
		<path fill="#00B1ED" d="M139.4,122.1v4.3h-1.6v-10.6h1.8c0.9,0,1.6,0.1,2,0.2c0.5,0.1,0.9,0.4,1.2,0.7c0.6,0.6,0.9,1.3,0.9,2.2
			c0,1-0.3,1.7-1,2.3c-0.6,0.6-1.5,0.8-2.6,0.8H139.4z M139.4,120.6h0.6c1.5,0,2.2-0.6,2.2-1.7c0-1.1-0.8-1.6-2.3-1.6h-0.5V120.6z"
			/>
		<path fill="#00B1ED" d="M145.1,119.7h1.5v0.6c0.3-0.3,0.5-0.5,0.8-0.6c0.2-0.1,0.5-0.2,0.8-0.2c0.4,0,0.8,0.1,1.3,0.4l-0.7,1.4
			c-0.3-0.2-0.6-0.3-0.9-0.3c-0.8,0-1.3,0.6-1.3,1.9v3.5h-1.5V119.7z"/>
		<path fill="#00B1ED" d="M150,123c0-1,0.3-1.8,1-2.5c0.7-0.7,1.5-1,2.5-1c1,0,1.8,0.3,2.5,1c0.7,0.7,1,1.5,1,2.5c0,1-0.3,1.8-1,2.5
			c-0.7,0.7-1.5,1-2.5,1c-1,0-1.8-0.3-2.5-1C150.3,124.9,150,124,150,123z M151.6,123c0,0.7,0.2,1.2,0.5,1.6
			c0.4,0.4,0.8,0.6,1.4,0.6c0.6,0,1.1-0.2,1.4-0.6c0.4-0.4,0.5-0.9,0.5-1.6c0-0.6-0.2-1.2-0.5-1.6c-0.4-0.4-0.8-0.6-1.4-0.6
			c-0.6,0-1.1,0.2-1.4,0.6C151.8,121.9,151.6,122.4,151.6,123z"/>
		<path fill="#00B1ED" d="M158.7,119.7h1.5v0.6c0.3-0.3,0.5-0.5,0.8-0.6c0.2-0.1,0.5-0.2,0.8-0.2c0.8,0,1.3,0.3,1.8,1
			c0.5-0.7,1.1-1,2-1c1.5,0,2.2,0.9,2.2,2.7v4.1h-1.5v-3.7c0-0.6-0.1-1.1-0.2-1.4c-0.2-0.3-0.4-0.4-0.8-0.4c-0.4,0-0.7,0.2-0.9,0.5
			c-0.2,0.3-0.3,0.8-0.3,1.5v3.4h-1.5v-3.7c0-1.2-0.3-1.8-1-1.8c-0.4,0-0.7,0.2-0.9,0.5c-0.2,0.3-0.3,0.8-0.3,1.5v3.4h-1.5V119.7z"
			/>
		<path fill="#00B1ED" d="M169.5,123c0-1,0.3-1.8,1-2.5c0.7-0.7,1.5-1,2.5-1c1,0,1.8,0.3,2.5,1c0.7,0.7,1,1.5,1,2.5
			c0,1-0.3,1.8-1,2.5c-0.7,0.7-1.5,1-2.5,1c-1,0-1.8-0.3-2.5-1C169.8,124.9,169.5,124,169.5,123z M171.1,123c0,0.7,0.2,1.2,0.5,1.6
			c0.4,0.4,0.8,0.6,1.4,0.6c0.6,0,1.1-0.2,1.4-0.6c0.4-0.4,0.5-0.9,0.5-1.6c0-0.6-0.2-1.2-0.5-1.6c-0.4-0.4-0.8-0.6-1.4-0.6
			c-0.6,0-1.1,0.2-1.4,0.6C171.2,121.9,171.1,122.4,171.1,123z"/>
		<path fill="#00B1ED" d="M179.8,121.2v5.2h-1.5v-5.2h-0.7v-1.4h0.7v-2.4h1.5v2.4h1.2v1.4H179.8z"/>
		<path fill="#00B1ED" d="M181.8,116.9c0-0.3,0.1-0.5,0.3-0.7c0.2-0.2,0.4-0.3,0.7-0.3c0.3,0,0.5,0.1,0.7,0.3
			c0.2,0.2,0.3,0.4,0.3,0.7c0,0.3-0.1,0.5-0.3,0.7c-0.2,0.2-0.4,0.3-0.7,0.3c-0.3,0-0.5-0.1-0.7-0.3
			C181.9,117.5,181.8,117.2,181.8,116.9z M183.6,119.7v6.7H182v-6.7H183.6z"/>
		<path fill="#00B1ED" d="M185.2,123c0-1,0.3-1.8,1-2.5c0.7-0.7,1.5-1,2.5-1c1,0,1.8,0.3,2.5,1c0.7,0.7,1,1.5,1,2.5
			c0,1-0.3,1.8-1,2.5c-0.7,0.7-1.5,1-2.5,1c-1,0-1.8-0.3-2.5-1C185.6,124.9,185.2,124,185.2,123z M186.8,123c0,0.7,0.2,1.2,0.5,1.6
			c0.4,0.4,0.8,0.6,1.4,0.6c0.6,0,1.1-0.2,1.4-0.6c0.4-0.4,0.5-0.9,0.5-1.6c0-0.6-0.2-1.2-0.5-1.6c-0.4-0.4-0.8-0.6-1.4-0.6
			c-0.6,0-1.1,0.2-1.4,0.6C187,121.9,186.8,122.4,186.8,123z"/>
		<path fill="#00B1ED" d="M193.9,119.7h1.5v0.6c0.5-0.5,1.1-0.8,1.8-0.8c0.8,0,1.4,0.2,1.8,0.7c0.4,0.4,0.6,1.1,0.6,2v4.1h-1.5v-3.7
			c0-0.7-0.1-1.1-0.3-1.4c-0.2-0.3-0.5-0.4-1-0.4c-0.5,0-0.9,0.2-1.1,0.5c-0.2,0.3-0.3,0.9-0.3,1.7v3.2h-1.5V119.7z"/>
		<path fill="#00B1ED" d="M212.4,123.8h-4.5l-1.2,2.6H205l5.2-11.2l5,11.2h-1.7L212.4,123.8z M211.8,122.3l-1.6-3.6l-1.6,3.6H211.8z
			"/>
		<path fill="#00B1ED" d="M222.7,126.2c0,0.3,0,0.6,0,0.8c0,0.2,0,0.5-0.1,0.6c-0.1,0.5-0.3,0.9-0.6,1.3c-0.6,0.7-1.4,1-2.5,1
			c-0.9,0-1.6-0.2-2.2-0.7c-0.6-0.5-0.9-1.2-1-2h1.5c0.1,0.3,0.2,0.6,0.3,0.8c0.3,0.4,0.8,0.6,1.4,0.6c1.1,0,1.7-0.7,1.7-2.1v-0.9
			c-0.6,0.6-1.3,0.9-2.1,0.9c-0.9,0-1.7-0.3-2.2-1c-0.6-0.7-0.9-1.5-0.9-2.5c0-1,0.3-1.8,0.8-2.5c0.6-0.7,1.4-1.1,2.3-1.1
			c0.8,0,1.5,0.3,2.1,0.9v-0.8h1.5V126.2z M221.3,123.1c0-0.6-0.2-1.2-0.5-1.5c-0.4-0.4-0.8-0.6-1.3-0.6c-0.6,0-1,0.2-1.4,0.6
			c-0.3,0.4-0.5,0.9-0.5,1.5c0,0.6,0.2,1.1,0.5,1.5c0.3,0.4,0.8,0.6,1.4,0.6c0.6,0,1.1-0.2,1.4-0.6
			C221.1,124.2,221.3,123.7,221.3,123.1z"/>
		<path fill="#00B1ED" d="M230.8,123.4H226c0,0.5,0.2,1,0.5,1.3c0.3,0.3,0.7,0.5,1.2,0.5c0.4,0,0.7-0.1,1-0.3c0.2-0.2,0.5-0.5,0.8-1
			l1.3,0.7c-0.2,0.3-0.4,0.6-0.6,0.9c-0.2,0.2-0.5,0.4-0.7,0.6c-0.3,0.2-0.5,0.3-0.8,0.3c-0.3,0.1-0.6,0.1-1,0.1c-1,0-1.8-0.3-2.4-1
			c-0.6-0.6-0.9-1.5-0.9-2.6c0-1.1,0.3-1.9,0.9-2.6c0.6-0.6,1.4-1,2.3-1c1,0,1.8,0.3,2.3,0.9c0.6,0.6,0.8,1.5,0.8,2.6L230.8,123.4z
			 M229.2,122.1c-0.2-0.8-0.7-1.2-1.6-1.2c-0.2,0-0.4,0-0.5,0.1c-0.2,0.1-0.3,0.1-0.4,0.2c-0.1,0.1-0.2,0.2-0.3,0.4
			c-0.1,0.2-0.2,0.3-0.2,0.5H229.2z"/>
		<path fill="#00B1ED" d="M232.4,119.7h1.5v0.6c0.5-0.5,1.1-0.8,1.8-0.8c0.8,0,1.4,0.2,1.8,0.7c0.4,0.4,0.6,1.1,0.6,2v4.1h-1.5v-3.7
			c0-0.7-0.1-1.1-0.3-1.4c-0.2-0.3-0.5-0.4-1-0.4c-0.5,0-0.9,0.2-1.1,0.5c-0.2,0.3-0.3,0.9-0.3,1.7v3.2h-1.5V119.7z"/>
		<path fill="#00B1ED" d="M245.3,120v2c-0.4-0.4-0.7-0.7-0.9-0.9c-0.3-0.2-0.6-0.2-1-0.2c-0.6,0-1.1,0.2-1.4,0.6
			c-0.4,0.4-0.6,0.9-0.6,1.5c0,0.6,0.2,1.1,0.6,1.5c0.4,0.4,0.8,0.6,1.4,0.6c0.4,0,0.7-0.1,1-0.2c0.3-0.2,0.6-0.5,1-0.9v2
			c-0.6,0.3-1.2,0.5-1.9,0.5c-1,0-1.9-0.3-2.6-1c-0.7-0.7-1-1.5-1-2.5c0-1,0.4-1.8,1.1-2.5c0.7-0.7,1.6-1,2.6-1
			C244.1,119.5,244.7,119.7,245.3,120z"/>
		<path fill="#00B1ED" d="M248.9,125.1l-3-5.4h1.8l2,3.8l1.9-3.8h1.7L248,130h-1.8L248.9,125.1z"/>
	</g>
</g>
<rect x="262" y="123.3" fill="#00B1ED" width="110.6" height="0.9"/>
<g>
	<path d="M171.5,89.5c0.7,0,1.1-0.2,1.5-0.3l1.8,1.5c-0.4,0.6-1.7,3.6-2.2,4.7c-3.3,7.5-8.2,9.9-10.1,10.9c-0.4-0.5-1-1.2-2.8-2.5
		c3.3-1.4,5.9-3.8,7.1-5.1c1.8-2.1,2.8-4.8,3.2-6.1h-5.4c-1.4,2.1-3,3.9-4.9,5.6c-1.2-1.2-1.6-1.7-2.6-2.3c5.3-4.5,6.6-8.3,7.1-9.6
		l3.1,1.5c0.1,0,0.3,0.2,0.3,0.3c0,0.2-0.3,0.3-0.5,0.3c-0.3,0.7-0.4,0.8-0.6,1.1H171.5z"/>
	<path d="M192.7,92.1c0.7,0,1.2,0,1.9-0.2l2.1,1.5c-0.4,0.7-2,3.8-2.3,4.4c-2.2,3.8-4.5,6.3-9.4,8.3c-0.6-1-1.7-2.2-2.4-2.8
		c2-0.7,6.9-2.4,9.1-8.1h-13v-3.2H192.7z M194,87.1v3.1h-12.6v-3.1H194z"/>
	<path d="M214.8,89.7c0.7,0,1,0,1.6-0.2l2.1,1.6c-0.1,0.5-0.7,2.8-0.8,3.3c-1.1,3.8-2.4,6.6-5.1,9.3c-1.9,1.8-3.3,2.4-3.9,2.6
		c-0.8-1-1.5-1.7-2.8-2.5c2.2-0.7,4.6-2.7,5.9-4.4c0.8-1.2,1.9-3.3,2.6-6.5H204v4.6h-3.6v-7.7h6.8v-3.3l3.7,0.2c0.2,0,0.5,0,0.5,0.2
		c0,0.2-0.3,0.4-0.5,0.4v2.5H214.8z"/>
	<path d="M227,92.2c2.7,1.5,5.3,3,7.5,5.1c-0.7,0.9-0.8,1.1-2.1,3.1c-2.7-2.9-5.9-4.6-6.7-5v10.3H222V86.6l3.7,0.1
		c0.1,0,0.4,0,0.4,0.3c0,0.3-0.2,0.3-0.4,0.4v6.7L227,92.2z M231.9,88.4c0.8,0.7,1.5,1.4,2.2,2.2c-0.5,0.4-1.3,1.1-1.8,1.5
		c-0.4-0.6-1.4-1.7-2.1-2.3L231.9,88.4z M234.2,86.7c0.4,0.3,1.5,1.2,2.2,2.2c-0.3,0.2-1.4,1.2-1.6,1.3c-1.1-1.2-1.6-1.7-2.3-2.3
		L234.2,86.7z"/>
	<path d="M246.7,106h-3.2v-5.7c-0.8,1.3-1.3,1.9-1.8,2.5c-1.4-1.4-2.2-1.7-2.7-1.9c2-2.1,3-3.6,4-6.3h-3.6v-2.8h4v-2.2
		c-1.6,0.2-1.8,0.3-2.6,0.3c-0.5-1.3-1-1.9-1.4-2.5c3.2,0,5.6-0.4,8.3-1.4l1.9,2c0.1,0.1,0.1,0.2,0.1,0.3c0,0.2-0.2,0.3-0.4,0.3
		c-0.2,0-0.3,0-0.5-0.1c-0.5,0.2-0.9,0.3-2.2,0.7v2.8h3.3v2.8h-3c1.1,1.5,2,2.4,3.3,3.6c-0.7,0.8-1.1,1.3-1.7,2.3
		c-0.5-0.4-1-0.8-2-2.1V106z M254.2,88c0.2,0,0.3,0.2,0.3,0.3c0,0.2-0.2,0.3-0.3,0.4V101h-3.1V87.8L254.2,88z M259.1,86.4
		c0.1,0,0.3,0.1,0.3,0.3c0,0.2-0.1,0.3-0.5,0.5v16.3c0,1.5-0.2,2.6-3.3,2.6c-0.6,0-1.1,0-1.5-0.1c-0.1-0.9-0.4-2-1.1-3.1
		c0.8,0.2,1.7,0.3,2.1,0.3c0.2,0,0.6,0,0.6-0.6V86.1L259.1,86.4z"/>
	<path d="M274.1,105h-3.2v-5.8h-3.8c-0.2,1.6-0.7,4.5-2,7c-1-0.8-2.8-1.2-3.5-1.3c1.1-1.4,2.3-4.3,2.3-9.2v-8.9H281v16.5
		c0,2.5-1.5,2.7-4.6,2.7c-0.1-1.2-0.4-2.1-1.2-3.3c0.3,0,1.1,0.1,1.6,0.1c0.9,0,0.9-0.2,0.9-1v-2.6h-3.6V105z M270.9,89.6h-3.6v2
		h3.6V89.6z M270.9,94.3h-3.6v2h3.6V94.3z M274.1,91.5h3.6v-2h-3.6V91.5z M274.1,96.3h3.6v-2h-3.6V96.3z"/>
	<path d="M296,94.6h-4.7v-7.9h12.3v7.9h-4.5v2.4h4.5v2.8h-4.5v3.3c0.4,0,0.8,0,1.2,0c0.1,0,3.1,0,4.7-0.4c-0.7,1-1.2,1.8-1.4,3.2
		c-0.5,0-1.1,0-2.7,0c-3,0-5.4,0-7.6-3.1c-0.7,1.6-1.5,2.6-2,3.2c-0.7-0.6-1.1-0.9-1.9-1.3v1.3h-3.1V95.5c-0.3,0.4-0.5,0.6-0.7,0.8
		c-1-1.4-1.6-1.9-2.2-2.3c0.9-1,2.9-3.3,4.4-8.1l2.9,0.9c0.2,0.1,0.4,0.1,0.4,0.3c0,0.2-0.2,0.3-0.5,0.3c-0.7,1.8-1,2.5-1.5,3.4
		l0.4,0.2c0.1,0,0.4,0.2,0.4,0.4c0,0.2-0.2,0.3-0.5,0.3v11.7c1.5-2.1,2.4-4.6,2.4-8.2l3.1,0.5c0.3,0,0.5,0.1,0.5,0.4
		c0,0.2-0.3,0.3-0.5,0.3c-0.2,1.6-0.4,2.5-0.5,3c0.4,1,0.9,1.7,1.7,2.4V94.6z M294.5,89.2V92h5.9v-2.8H294.5z"/>
	<path d="M312.8,93.8v7.4c0.2,1.2,0.6,1.8,6.8,1.8c2,0,6.2-0.1,8.1-0.4c-0.2,0.5-0.7,1.8-0.7,3.1h-9c-3.4,0-5.2-0.2-6.5-1.7
		c-0.8,0.7-2.3,1.7-2.4,1.7c0,0.4-0.1,0.6-0.4,0.6c-0.2,0-0.2-0.1-0.3-0.3l-1.4-2.8c0.3-0.1,1.6-0.7,2.9-1.5v-4.9h-2.5v-2.9H312.8z
		 M309.3,85.9c2.4,1.7,3,2.5,3.4,3c-0.8,0.7-1.6,1.5-2.2,2.3c-1.3-1.5-1.8-1.9-3.3-3.2L309.3,85.9z M322.9,92.4h3.3v2.2h-3.3v1.1
		h3.3V98h-3.3v1.2h4.2v2.6h-9.3v0.5h-3.1v-9.5c-0.5,0.6-0.6,0.7-0.8,1c-1.4-1-1.6-1.1-2.8-1.5c0.9-0.8,3.2-2.9,4.6-6.4l2.9,1.2
		c0.2,0.1,0.2,0.2,0.2,0.2c0,0.3-0.2,0.3-0.5,0.4c-0.2,0.4-0.4,0.7-0.6,1.2h2c0.5-0.9,0.8-1.6,1.2-3l3.2,0.6c0.2,0,0.3,0.1,0.3,0.2
		c0,0.3-0.4,0.4-0.6,0.4c-0.3,0.6-0.5,1.1-0.8,1.7h3.9v2.5h-3.9V92.4z M319.9,91.3h-2.2v1.1h2.2V91.3z M319.9,94.7h-2.2v1.1h2.2
		V94.7z M319.9,98h-2.2v1.2h2.2V98z"/>
	<path d="M348.9,91.3c0.4,0.8,0.6,1.7,0.9,3.4c-0.6,0.1-1.4,0.5-1.8,0.6c0-0.5-0.1-0.7-0.2-1.1c-0.2,0-0.4,0.1-0.9,0.2
		c0.1,0.2,0.4,0.7,0.8,1.7h1.5v2.3h-2.5l1.2,0.9c0.1,0.1,0.3,0.2,0.3,0.4c0,0.3-0.4,0.2-0.6,0.2c-0.6,0.9-1.1,1.6-1.6,2.2
		c0.2,0.2,0.5,0.5,0.8,0.5c0.5,0,0.6-0.9,0.7-1.3c0.7,0.8,1.6,1.1,2.1,1.2c-0.6,3.4-1.6,3.5-2.3,3.5c-0.8,0-1.9-0.6-3-2
		c-1.2,1-2.4,1.6-3.1,2c-0.6-0.7-1.2-1.4-2.1-1.9c1-0.4,2.3-0.9,3.9-2.3c-0.1-0.3-0.6-1.4-1.1-3.5h-2.7c0,0.7,0,1.2-0.1,1.5l0.8-0.6
		c0.4,0.4,1.6,1.6,2.2,2.3c-0.7,0.4-1.1,0.7-1.9,1.4c-0.4-0.6-1-1.2-1.3-1.6c-0.6,2.7-1.7,3.8-2.3,4.5c-0.9-0.8-1.4-1.1-2.4-1.7v1.7
		h-2.7v-6.5c-0.4,0.7-0.7,1-0.9,1.3c-0.9-1.8-1.5-2.2-1.9-2.5c1.4-1.7,2.2-3.4,2.7-5.9h-1.8v-2.6h1.9v-3.5l2.8,0.2
		c0.1,0,0.4,0,0.4,0.2c0,0.2-0.2,0.3-0.4,0.5v2.6h0.7l0-0.1L336,88c0.2,0.2,0.3,0.2,0.4,0.3c0.7-1.1,1-1.7,1.4-2.5l1.7,0.9
		c0.2,0.1,0.3,0.2,0.3,0.3c0,0.2-0.2,0.2-0.5,0.3c-0.6,1.1-0.9,1.7-1.4,2.5c0.1,0.1,0.3,0.3,0.4,0.4c0.6-0.9,0.7-1.2,0.9-1.5
		l1.7,0.9c0-1.6,0-2.6,0.1-3.5l2.6,0.3c0.4,0,0.7,0.1,0.7,0.3c0,0.3-0.3,0.4-0.7,0.5c0,0.8,0,1.3,0,1.9l1.1-1.2
		c0.2,0.2,0.3,0.3,0.5,0.4c0.8-1.1,1.2-1.8,1.5-2.3l1.7,1c0.1,0,0.2,0.1,0.2,0.2c0,0.2-0.2,0.2-0.3,0.2c-0.9,1.3-1.2,1.7-1.7,2.3
		c0.2,0.2,0.3,0.3,0.4,0.4c0.5-0.8,0.7-1,0.9-1.4l1.6,1c0.1,0.1,0.2,0.1,0.2,0.2c0,0.2-0.2,0.2-0.3,0.2H349
		c-0.2,0.3-0.8,1.1-1.2,1.6L348.9,91.3z M335.3,93.4c0.3,0,0.7,0,1,0c0.3-0.4,0.7-0.9,1-1.4c-0.4-0.4-1.1-1.1-1.4-1.3v1.7h-1.8v0.7
		c0.6,1.5,1.3,2.5,1.9,3.1h5.4c-0.4-2.7-0.4-3.8-0.5-6c-0.1,0-0.2,0-0.2,0c-0.5,0.8-1,1.7-1.4,2.3l1.3-0.3c0.4,1.4,0.5,2.9,0.5,3.2
		c-0.5,0.1-1,0.2-1.6,0.3c0-0.3,0-0.5-0.1-0.7c-1,0.2-2.2,0.4-3.1,0.5c-0.1,0.2-0.1,0.3-0.3,0.3c-0.2,0-0.2-0.2-0.3-0.3L335.3,93.4z
		 M334.1,104.2c2.3-1.8,2.4-3.8,2.5-5.7h-0.7v-1.6c-0.5,0.8-0.7,1.1-0.9,1.7c-0.3-0.4-0.5-0.6-0.9-1.3V104.2z M338.2,93.6
		c0.3,0,0.4,0,1.2,0c0-0.2-0.3-1-0.3-1.1C338.7,92.8,338.4,93.3,338.2,93.6z M343.8,92.8c0.3,0,0.4,0,0.5,0c0.3-0.3,0.5-0.5,1.1-1.1
		c-0.6-0.7-1.3-1.4-1.9-2c0,0.6,0,3,0.5,6.3h1.3c-0.1-0.2-0.1-0.3-0.4-0.8l1.8-0.8c-0.3,0.1-1.4,0.3-1.7,0.3
		c-0.1,0.2-0.3,0.3-0.4,0.3c-0.2,0-0.2-0.2-0.2-0.3L343.8,92.8z M344.4,98.5c0.2,0.8,0.3,1.2,0.4,1.4c0.2-0.3,0.5-0.7,0.8-1.4H344.4
		z M346.3,93.1c0.4,0,1,0,1.4-0.1c-0.1-0.5-0.2-0.8-0.3-1.2C347.1,92.3,346.8,92.6,346.3,93.1z"/>
	<path d="M372.5,100.9v2.1h-1.1v0.8c0,0.9,0,2.3-3,2.3c-0.2,0-0.4,0-0.8,0c-0.2-1.1-0.4-1.5-0.9-2.6c0.8,0.2,1.2,0.2,1.5,0.2
		c0.3,0,0.5,0,0.5-0.7h-5.3v2.9h-2.9V103h-1.5v-2.1h1.5v-2.7c-0.4,0.2-1,0.6-1.8,1.8c-0.2-0.4-0.4-0.7-0.6-1.2v7.1h-3v-6.1
		c-0.5,1.3-0.7,1.9-1,2.5c-0.6-0.6-1.7-1.6-2.5-2.1c1.5-1.8,2.9-5.2,3.4-7.4h-2.6v-3h2.7v-3.8l3,0.2c0.3,0,0.4,0.1,0.4,0.3
		c0,0.1-0.1,0.2-0.4,0.4v2.9h1.9v2.6h2.6v-0.9h-1.8V90h1.8v-0.8H360v-1.9h2.6v-1.2l2.8,0.2c0.1,0,0.4,0,0.4,0.3
		c0,0.2-0.1,0.2-0.5,0.4v0.3h1.6V86l2.8,0.2c0.2,0,0.4,0,0.4,0.2c0,0.2,0,0.2-0.4,0.4v0.5h2.5v1.9h-2.5V90h2v1.6h-2v0.9h2.8v2.2
		h-5.1v0.7h4.1v5.4H372.5z M358.1,93.1c0.5,1.2,1.2,2.5,2.4,4.2v-1.8h4.2v-0.7h-5.1v-1.9h-1.5V93.1z M364.7,98.2v-0.9h-1.3v0.9
		H364.7z M364.7,100.9v-1h-1.3v1H364.7z M365.3,89.2V90h1.6v-0.8H365.3z M365.3,91.6v0.9h1.6v-0.9H365.3z M368.7,98.2v-0.9h-1.3v0.9
		H368.7z M368.7,100.9v-1h-1.3v1H368.7z"/>
</g>
</svg>
