<?xml version="1.0" encoding="utf-8"?>
<!-- Generator: Adobe Illustrator 19.1.0, SVG Export Plug-In . SVG Version: 6.00 Build 0)  -->
<svg version="1.1" id="レイヤー_1" xmlns="http://www.w3.org/2000/svg" xmlns:xlink="http://www.w3.org/1999/xlink" x="0px"
	 y="0px" viewBox="0 0 295.411 57.403" style="enable-background:new 0 0 295.411 57.403;" xml:space="preserve">
<style type="text/css">
	.st0{fill:#FFFFFF;}
	.st1{fill:#FF7F00;}
	.st2{fill:#FFFFFF;stroke:#FF7F00;stroke-width:0.3299;}
</style>
<g>
	<g>
		<path class="st0" d="M86.864,41.466c-0.961,0-1.74-0.778-1.74-1.74v-7.9h-5.253v7.9c0,0.962-0.779,1.74-1.74,1.74H73.89
			c-0.961,0-1.74-0.778-1.74-1.74V17.68c0-0.961,0.779-1.74,1.74-1.74h4.242c0.961,0,1.74,0.779,1.74,1.74v7.135h5.253V17.68
			c0-0.961,0.779-1.74,1.74-1.74h4.269c0.961,0,1.74,0.779,1.74,1.74v22.046c0,0.962-0.779,1.74-1.74,1.74H86.864z"/>
		<path class="st0" d="M99.094,41.466c-0.961,0-1.74-0.778-1.74-1.74V17.68c0-0.961,0.779-1.74,1.74-1.74h14.9
			c0.961,0,1.74,0.779,1.74,1.74v3.534c0,0.961-0.779,1.74-1.74,1.74h-8.968v1.974h7.56c0.961,0,1.74,0.779,1.74,1.74v3.45
			c0,0.962-0.779,1.74-1.74,1.74h-7.56v2.597h9.508c0.961,0,1.74,0.778,1.74,1.74v3.532c0,0.962-0.779,1.74-1.74,1.74H99.094z"/>
		<path class="st0" d="M134.801,41.466c-0.742,0-1.402-0.471-1.644-1.172l-1.575-4.565h-5.615l-1.598,4.572
			c-0.244,0.698-0.902,1.165-1.642,1.165h-4.237c-0.563,0-1.091-0.272-1.418-0.732c-0.326-0.459-0.41-1.046-0.226-1.578l7.66-22.046
			c0.244-0.7,0.903-1.169,1.644-1.169h5.305c0.742,0,1.402,0.471,1.644,1.172l7.607,22.046c0.183,0.532,0.099,1.12-0.228,1.576
			c-0.327,0.459-0.854,0.73-1.417,0.73H134.801z M129.131,28.714c-0.121-0.347-0.25-0.715-0.381-1.095
			c-0.127,0.38-0.252,0.75-0.371,1.095H129.131z"/>
		<path class="st0" d="M156.952,41.466c-0.663,0-1.266-0.375-1.56-0.968l-3.895-7.881h-1.169v7.11c0,0.962-0.778,1.74-1.74,1.74
			h-4.128c-0.961,0-1.74-0.778-1.74-1.74V17.68c0-0.961,0.779-1.74,1.74-1.74h8.904c5.28,0,8.829,3.255,8.829,8.1
			c0,3.138-1.14,5.521-3.255,6.901l4.475,7.93c0.304,0.539,0.299,1.198-0.014,1.731c-0.311,0.535-0.883,0.863-1.502,0.863H156.952z
			 M152.656,25.836c1.582,0,1.796-0.809,1.796-1.6c0-0.871-0.622-1.311-1.848-1.311h-2.275v2.912H152.656z"/>
		<path class="st0" d="M171.901,41.466c-0.962,0-1.74-0.778-1.74-1.74V22.954h-4.454c-0.962,0-1.74-0.779-1.74-1.74V17.68
			c0-0.961,0.778-1.74,1.74-1.74h16.679c0.962,0,1.74,0.779,1.74,1.74v3.534c0,0.961-0.778,1.74-1.74,1.74h-4.476v16.772
			c0,0.962-0.778,1.74-1.74,1.74H171.901z"/>
		<path class="st0" d="M189.245,41.466c-0.962,0-1.74-0.778-1.74-1.74V17.68c0-0.961,0.778-1.74,1.74-1.74h8.703
			c5.02,0,8.525,2.981,8.525,7.249c0,1.78-0.523,3.305-1.463,4.436c1.575,1.213,2.733,3.189,2.733,5.936
			c0,4.728-3.719,7.905-9.255,7.905H189.245z M197.922,34.482c2.13,0,2.13-1.114,2.13-1.48c0-1.334-2.005-1.373-2.234-1.373h-2.645
			v2.852H197.922z M197.53,24.899c1.311,0,1.311-0.547,1.311-0.946c0-1.027-1.116-1.138-1.597-1.138h-2.071v2.084H197.53z"/>
		<path class="st0" d="M212.474,41.466c-0.962,0-1.74-0.778-1.74-1.74V17.68c0-0.961,0.778-1.74,1.74-1.74h14.892
			c0.962,0,1.74,0.779,1.74,1.74v3.534c0,0.961-0.778,1.74-1.74,1.74h-8.963v1.974h7.553c0.962,0,1.74,0.779,1.74,1.74v3.45
			c0,0.962-0.778,1.74-1.74,1.74h-7.553v2.597h9.51c0.962,0,1.74,0.778,1.74,1.74v3.532c0,0.962-0.778,1.74-1.74,1.74H212.474z"/>
		<path class="st0" d="M248.177,41.466c-0.741,0-1.402-0.471-1.644-1.17l-1.58-4.566h-5.606l-1.602,4.573
			c-0.243,0.697-0.902,1.164-1.641,1.164h-4.24c-0.562,0-1.091-0.272-1.417-0.732c-0.328-0.459-0.411-1.046-0.226-1.578l7.66-22.046
			c0.243-0.7,0.902-1.169,1.643-1.169h5.319c0.742,0,1.403,0.471,1.644,1.172l7.606,22.046c0.183,0.532,0.099,1.12-0.228,1.576
			c-0.326,0.459-0.855,0.73-1.417,0.73H248.177z M242.504,28.714c-0.121-0.345-0.248-0.714-0.379-1.092
			c-0.127,0.381-0.251,0.747-0.37,1.092H242.504z"/>
		<path class="st0" d="M261.934,41.466c-0.962,0-1.74-0.778-1.74-1.74V22.954h-4.449c-0.962,0-1.74-0.779-1.74-1.74V17.68
			c0-0.961,0.778-1.74,1.74-1.74h16.676c0.962,0,1.74,0.779,1.74,1.74v3.534c0,0.961-0.778,1.74-1.74,1.74h-4.476v16.772
			c0,0.962-0.778,1.74-1.74,1.74H261.934z"/>
		<path class="st0" d="M285.559,42.001c-5.013,0-8.735-2.523-10.212-6.921c-0.25-0.744,0.029-1.563,0.681-2l3.161-2.118
			c0.29-0.194,0.627-0.294,0.968-0.294c0.183,0,0.367,0.029,0.544,0.087c0.51,0.168,0.914,0.562,1.094,1.067
			c0.668,1.862,2.18,3.114,3.763,3.114c0.962,0,2.107-0.189,2.107-1.091c0-0.42,0-0.941-2.146-1.723l-3.161-1.097
			c-2.898-1.046-6.202-2.854-6.202-7.634c0-4.628,3.883-7.988,9.233-7.988c4.679,0,7.798,1.839,9.27,5.466
			c0.302,0.745,0.054,1.599-0.598,2.068l-3.071,2.205c-0.299,0.215-0.654,0.326-1.014,0.326c-0.17,0-0.34-0.025-0.506-0.076
			c-0.518-0.157-0.934-0.548-1.123-1.056c-0.498-1.329-1.417-1.976-2.813-1.976c-0.921,0-1.85,0.257-1.85,0.829
			c0,0.393,1.002,0.784,1.6,0.982l3.384,1.097c4.546,1.556,6.743,4.22,6.743,8.154C295.411,38.714,291.636,42.001,285.559,42.001z"
			/>
		<path class="st1" d="M86.864,39.726v-9.639h-8.732v9.639H73.89V17.681h4.242v8.875h8.732v-8.875h4.269v22.045H86.864z"/>
		<path class="st1" d="M99.094,39.726V17.681h14.9v3.533h-10.708v5.453h9.299v3.45h-9.299v6.077h11.248v3.532H99.094z"/>
		<path class="st1" d="M131.605,30.454h-5.681c0,0,2.4-6.639,2.688-8.645h0.221C129.152,23.815,131.605,30.454,131.605,30.454z
			 M139.063,39.726l-7.607-22.045h-5.305l-7.66,22.045h4.237l2.005-5.737h8.09l1.979,5.737H139.063z"/>
		<path class="st1" d="M156.191,24.236c0,2.178-1.415,3.34-3.535,3.34h-4.067v-6.391h4.014
			C154.66,21.185,156.191,22.261,156.191,24.236z M161.897,39.726l-5.392-9.554c2.343-0.734,3.948-2.596,3.948-6.131
			c0-3.957-2.932-6.36-7.089-6.36h-8.903v22.045h4.128v-8.849h3.989l4.374,8.849H161.897z"/>
		<path class="st1" d="M176.171,21.214v18.512h-4.269V21.214h-6.194v-3.533h16.679v3.533H176.171z"/>
		<path class="st1" d="M200.581,23.952c0,1.782-1.213,2.686-3.051,2.686h-4.096v-5.564h3.81
			C198.941,21.075,200.581,22.004,200.581,23.952z M206.004,33.561c0-3.413-2.309-5.365-4.684-5.62l-0.031-0.056
			c2.117-0.425,3.444-2.093,3.444-4.695c0-3.219-2.715-5.509-6.785-5.509h-8.703v22.045h9.243
			C203.093,39.726,206.004,37.293,206.004,33.561z M201.792,33.002c0,2.089-1.582,3.219-3.87,3.219h-4.488V29.89h4.385
			C199.871,29.89,201.792,30.909,201.792,33.002z"/>
		<path class="st1" d="M212.474,39.726V17.681h14.892v3.533h-10.703v5.453h9.293v3.45h-9.293v6.077h11.25v3.532H212.474z"/>
		<path class="st1" d="M244.981,30.454H239.3c0,0,2.4-6.639,2.684-8.645h0.221C242.523,23.815,244.981,30.454,244.981,30.454z
			 M252.447,39.726l-7.605-22.045h-5.319l-7.66,22.045h4.24l2.01-5.737h8.078l1.986,5.737H252.447z"/>
		<path class="st1" d="M266.204,21.214v18.512h-4.271V21.214h-6.189v-3.533h16.676v3.533H266.204z"/>
		<path class="st1" d="M285.559,40.261c-4.408,0-7.376-2.202-8.562-5.735l3.162-2.118c0.931,2.599,3.105,4.267,5.401,4.267
			c2.487,0,3.846-1.128,3.846-2.83c0-1.583-0.967-2.511-3.289-3.357l-3.187-1.106c-3.445-1.245-5.034-2.856-5.034-5.992
			c0-3.42,2.827-6.248,7.494-6.248c3.868,0,6.442,1.386,7.658,4.381l-3.071,2.205c-0.771-2.066-2.385-3.107-4.442-3.107
			c-2.382,0-3.59,1.155-3.59,2.569c0,1.186,0.819,1.979,2.793,2.633l3.394,1.101c3.474,1.189,5.54,3.106,5.54,6.5
			C293.671,37.721,290.759,40.261,285.559,40.261z"/>
	</g>
	<g>
		<path class="st0" d="M17.306,57.403c-0.622,0-1.196-0.331-1.507-0.87L0.233,29.573c-0.31-0.539-0.31-1.201,0-1.74L15.799,0.87
			C16.11,0.331,16.684,0,17.306,0h31.131c0.622,0,1.196,0.331,1.507,0.87l15.563,26.964c0.31,0.539,0.31,1.201,0,1.74l-15.563,26.96
			c-0.311,0.539-0.885,0.87-1.507,0.87H17.306z"/>
		<polygon class="st1" points="48.436,1.74 63.999,28.703 48.436,55.663 17.306,55.663 1.739,28.703 17.306,1.74 		"/>
		<path class="st0" d="M52.266,33.433h-8.861l-3.221,5.732c-0.224-0.024-0.455-0.041-0.703-0.041c-2.332,0-3.875,0.625-5.224,1.628
			l4.114-7.319h-4.743l-11.882,21.14h4.74l5.378-9.568c1.126-1.325,2.745-2.086,4.099-2.086c1.133,0,1.568,0.662,1.055,1.875
			l-5.497,9.778h0.032h4.772h4.572c4.554,0,8.611-2.494,10.56-5.959c1.845-3.282,0.797-5.178-1.373-5.368l0.017-0.082
			c2.246-0.381,4.396-2.032,5.735-4.417C57.557,35.685,56.249,33.433,52.266,33.433z M46.865,47.961
			c-0.9,1.6-2.555,2.521-4.371,2.521h-3.741l2.773-4.933h3.605C46.892,45.549,47.733,46.418,46.865,47.961z M50.414,39.667
			c-0.715,1.274-2.011,2.09-3.476,2.09h-3.279l2.436-4.339h3.172C50.65,37.418,51.178,38.315,50.414,39.667z"/>
		<g>
			<polygon class="st2" points="14.841,18.536 11.846,13.348 14.841,8.159 20.832,8.159 23.827,13.348 20.832,18.536 			"/>
			<polygon class="st2" points="23.827,23.724 20.832,18.536 23.827,13.348 29.817,13.348 32.812,18.536 29.817,23.724 			"/>
			<polygon class="st2" points="23.827,13.348 20.832,8.159 23.827,2.971 29.817,2.971 32.812,8.159 29.817,13.348 			"/>
			<polygon class="st2" points="32.812,28.91 29.817,23.724 32.812,18.536 38.804,18.536 41.799,23.724 38.804,28.91 			"/>
		</g>
	</g>
</g>
</svg>
