<?xml version="1.0" encoding="utf-8"?>
<!-- Generator: Adobe Illustrator 18.1.1, SVG Export Plug-In . SVG Version: 6.00 Build 0)  -->
<svg version="1.1" id="レイヤー_1" xmlns="http://www.w3.org/2000/svg" xmlns:xlink="http://www.w3.org/1999/xlink" x="0px"
	 y="0px" viewBox="0 0 200 100" enable-background="new 0 0 200 100" xml:space="preserve">
<path d="M126.9,61.6c-0.7-0.3-0.9-0.6-0.9-1.6c0-2.5,0.2-5.3,0.2-6c0-0.7,0.2-1.2,0.6-1.2c0.4,0,0.5,0.4,0.5,0.8
	c0,0.6,0.2,1.6,0.4,2.4c1,3.4,3.7,4.7,6.6,4.7c4.2,0,6.2-2.8,6.2-5.3c0-2.3-0.7-4.4-4.5-7.4l-2.1-1.7c-5.1-4-6.8-7.2-6.8-10.9
	c0-5.1,4.2-8.7,10.7-8.7c3,0,4.9,0.5,6.1,0.8c0.4,0.1,0.6,0.2,0.6,0.6c0,0.6-0.2,1.9-0.2,5.5c0,1-0.1,1.4-0.5,1.4
	c-0.3,0-0.5-0.3-0.5-0.8c0-0.4-0.2-1.8-1.2-3c-0.7-0.9-2-2.3-5-2.3c-3.4,0-5.5,2-5.5,4.8c0,2.1,1.1,3.7,4.9,6.6l1.3,1
	c5.6,4.2,7.6,7.4,7.6,11.8c0,2.7-1,5.9-4.3,8c-2.3,1.5-4.9,1.9-7.3,1.9C131,62.8,128.9,62.5,126.9,61.6"/>
<path d="M122.9,61.3c-0.7,0-1.7-0.1-2.4-0.2c-1.4-0.2-1.7-1.2-1.8-2.5c-0.2-2-0.2-5.6-0.2-9.8v-0.1v-6.7v-6.2v-7.8
	c0-0.9-0.5-1.5-1-1.5c-0.5,0-0.8,0.4-1.2,1.1l-3.6,6.2l-11.4,19.7L86.8,28.9l-0.5-0.8c-0.7-1.2-1-1.4-1.5-1.4
	c-0.4,0-0.9,0.1-0.9,1.2v10.4v10.6c0,4.2,0,7.9-0.2,9.8c-0.1,1.3-0.4,2.4-1.3,2.5c-0.4,0.1-1,0.2-1.7,0.2c-0.6,0-0.7,0.1-0.7,0.4
	c0,0.3,0.3,0.5,0.9,0.5c0.1,0,0.1,0,0.1,0v0h9.6v0c0.2,0,0.3,0,0.5,0c0.5,0,0.9-0.1,0.9-0.5c0-0.2-0.2-0.4-0.7-0.4
	c-0.7,0-1.7-0.1-2.4-0.2c-1.4-0.2-1.7-1.2-1.8-2.5c-0.2-2-0.2-5.6-0.2-9.9v-7.3c1.9,3.3,4.2,7.1,4.6,7.9c0.7,1.3,5,8.4,6.3,10.5
	c0.9,1.4,1.4,2.3,1.9,2.3c0.5,0,0.8-0.4,2-2.6l11.1-18.9v8.2c0,4.2,0,7.9-0.2,9.8c-0.1,1.3-0.4,2.4-1.3,2.5c-0.4,0.1-1,0.2-1.7,0.2
	c-0.6,0-0.7,0.1-0.7,0.4c0,0.3,0.3,0.5,0.9,0.5h12.7v0c0.1,0,0.3,0,0.4,0c0.5,0,0.9-0.1,0.9-0.5C123.6,61.5,123.4,61.3,122.9,61.3"
	/>
<path d="M162.2,45.6c-1,0-1.3,0.1-1.3,0.5c0,0.3,0.3,0.4,0.6,0.4c0.2,0,0.7,0,1,0c6.6,0,11.4-4.6,11.4-11.2c0-2.4-1.3-4.5-2.3-5.5
	c-0.7-0.7-2.8-2.6-8.3-2.6v0h-12.9v0c-0.2,0-0.5,0-0.7,0c-0.7,0-1,0.1-1,0.4c0,0.3,0.3,0.4,0.8,0.4c0.6,0,1.4,0,1.8,0.1
	c1.5,0.3,1.9,1.1,2,2.6c0.1,1.5,0.1,2.8,0.1,9.8v8.1c0,4.2,0,7.9-0.2,9.8c-0.2,1.3-0.4,2.4-1.3,2.5c-0.4,0.1-1,0.2-1.7,0.2
	c-0.6,0-0.7,0.1-0.7,0.4c0,0.3,0.3,0.5,0.9,0.5c0.1,0,0.1,0,0.2,0v0h12.3v0c0.2,0,0.3,0,0.5,0c0.5,0,0.9-0.1,0.9-0.5
	c0-0.2-0.2-0.4-0.7-0.4c-0.7,0-1.7-0.1-2.4-0.2c-1.4-0.2-1.7-1.2-1.8-2.5c-0.2-2-0.2-5.6-0.2-9.9V30.3c0-0.5,0.1-0.8,0.4-0.9
	c0.4-0.1,1.1-0.2,1.8-0.2c1.1,0,3,0.3,4.6,1.8c2.6,2.3,2.7,5.4,2.7,6.9C168.4,42.7,164.8,45.6,162.2,45.6"/>
<path d="M188.7,27.3c-0.1,0-0.1,0-0.2,0v0h-12v0c-0.1,0-0.1,0-0.2,0c-0.7,0-1,0.1-1,0.4c0,0.3,0.3,0.4,0.8,0.4c0.6,0,1.4,0,1.8,0.1
	c1.5,0.3,1.9,1.1,2,2.6c0.1,1.5,0.1,2.8,0.1,9.8v13.2c0,9,0,13.7-3.5,17.2c-0.9,0.9-1.6,1.4-2.2,1.8c-0.8,0.4-1,0.6-1,0.8
	c0,0.2,0.2,0.4,0.4,0.4c0.2,0,0.6-0.1,0.9-0.3c1-0.5,1.7-0.8,2.3-1.2c4.4-2.7,6.9-5.9,7.8-8.7c0.9-2.6,1.1-5.5,1.1-8.2
	c0-2.3-0.1-4.5-0.1-6.5v-8.5c0-7,0-8.3,0.1-9.8c0.1-1.6,0.5-2.4,1.7-2.6c0.6-0.1,0.8-0.1,1.3-0.1c0.6,0,0.8-0.1,0.8-0.4
	C189.6,27.4,189.3,27.3,188.7,27.3"/>
<polygon fill="#BF1A20" points="14.3,29.8 14.3,63.8 21.6,63.8 21.6,34.7 24,34.7 24,29.8 "/>
<polygon fill="#BF1A20" points="28.9,27.4 28.9,63.8 41,63.8 41,32.2 43.4,32.2 43.4,27.4 "/>
<rect x="48.3" y="25" fill="#BF1A20" width="24.2" height="38.8"/>
<polygon fill="#3B0000" points="43.4,27.4 43.4,32.2 43.4,63.8 48.3,63.8 48.3,25 "/>
<polygon fill="#3B0000" points="24,29.8 24,34.7 24,63.8 28.9,63.8 28.9,27.4 "/>
<polygon fill="#3B0000" points="9.5,32.2 9.5,37.1 9.5,63.8 14.3,63.8 14.3,29.8 "/>
<polygon points="13.3,68.1 12.5,68.1 11.4,69.9 10.2,68.1 9.5,68.1 9.5,72.8 10.3,72.8 10.3,69.3 10.3,69.3 10.4,69.3 11.3,70.9 
	11.5,70.9 12.4,69.3 12.5,69.3 12.5,69.4 12.4,72.8 13.3,72.8 "/>
<path d="M16.7,71.7l0.3,1.1h0.8l-1.4-4.7h-0.9l-1.4,4.7H15l0.3-1.1H16.7z M15.9,69.1H16l0.6,2.1h-1.2L15.9,69.1z"/>
<polygon points="19.6,69.8 21.2,72.8 22,72.8 22,68.1 21.2,68.1 21.2,71 21.1,71 21,71 19.4,68.1 18.7,68.1 18.7,72.8 19.5,72.8 
	19.5,69.8 19.6,69.8 "/>
<path d="M25.4,71.7l0.3,1.1h0.8l-1.4-4.7h-0.9l-1.4,4.7h0.8l0.3-1.1H25.4z M24.6,69.1h0.1l0.6,2.1h-1.2L24.6,69.1z"/>
<path d="M27.8,72.2c0.4,0.4,1,0.6,1.8,0.6c0.4,0,0.8-0.1,1.3-0.3v-2.3h-1.5v0.5h0.7v1.6l0,0c-0.1,0-0.3,0-0.3,0
	c-1,0-1.6-0.6-1.6-1.9c0-1.3,0.5-2,1.5-2c0.4,0,0.8,0.1,1.4,0.4v-0.5c-0.5-0.2-1-0.3-1.4-0.3c-0.7,0-1.3,0.2-1.7,0.6
	c-0.4,0.4-0.6,1-0.6,1.8C27.1,71.2,27.3,71.8,27.8,72.2"/>
<polygon points="34.5,70.6 34.5,70.1 32.9,70.1 32.9,68.6 34.7,68.6 34.7,68.1 32.1,68.1 32.1,72.8 34.8,72.8 34.8,72.3 32.9,72.3 
	32.9,70.6 "/>
<path d="M37.2,68.1h-1v4.7h1.2c0.8,0,1.4-0.2,1.8-0.6c0.4-0.4,0.6-1,0.6-1.8C39.7,68.9,38.9,68.1,37.2,68.1 M38.5,71.9
	c-0.2,0.3-0.7,0.4-1.3,0.4H37v-3.7h0.2c0.6,0,1,0.1,1.3,0.4c0.2,0.3,0.3,0.8,0.3,1.4C38.8,71.1,38.7,71.6,38.5,71.9"/>
<path d="M46.8,71.8c0-0.2-0.1-0.3-0.2-0.6c-0.1-0.2-0.3-0.5-0.7-0.9c-0.4-0.4-0.6-0.7-0.7-0.9c-0.1-0.2-0.1-0.3-0.1-0.4
	c0-0.3,0.3-0.5,0.8-0.5c0.2,0,0.4,0,0.6,0.1v-0.5c-0.8-0.2-1.4-0.1-1.8,0.2c-0.3,0.2-0.4,0.4-0.4,0.7c0,0.2,0.1,0.3,0.2,0.5
	c0.1,0.2,0.3,0.5,0.7,0.9c0.4,0.4,0.6,0.7,0.7,0.9c0.1,0.2,0.1,0.3,0.1,0.4c0,0.1-0.1,0.3-0.2,0.4c-0.3,0.2-0.8,0.2-1.3-0.1v0.5
	c0.3,0.1,0.6,0.2,0.9,0.2c0.4,0,0.8-0.1,1.1-0.3C46.6,72.3,46.8,72.1,46.8,71.8"/>
<polygon points="50.2,70.6 50.2,70.1 48.7,70.1 48.7,68.6 50.4,68.6 50.4,68.1 47.8,68.1 47.8,72.8 50.5,72.8 50.5,72.3 48.7,72.3 
	48.7,70.6 "/>
<path d="M54,72l0.3,0.8h0.9l-0.3-0.9c-0.3-0.8-0.6-1.2-1-1.4l-0.1,0l0.1,0c0.5-0.2,0.8-0.5,0.8-1c0-0.4-0.2-0.7-0.5-0.9
	c-0.3-0.2-0.8-0.4-1.4-0.4h-0.8v4.7h0.9v-2.1l0,0c0.2,0,0.4,0.1,0.6,0.2C53.6,71,53.8,71.4,54,72 M52.8,70.2v-1.6h0
	c0.6,0,0.9,0.3,0.9,0.8C53.7,69.9,53.5,70.2,52.8,70.2L52.8,70.2z"/>
<polygon points="57.9,68.1 57.2,71.3 57.1,71.3 56.4,68.1 55.5,68.1 56.9,72.8 57.4,72.8 58.8,68.1 "/>
<rect x="59.7" y="68.1" width="0.9" height="4.7"/>
<path d="M62.1,72.2c0.3,0.4,0.8,0.6,1.5,0.6c0.4,0,0.8-0.1,1.1-0.3V72c-0.4,0.2-0.7,0.3-1,0.3c-0.4,0-0.7-0.2-0.9-0.5
	c-0.2-0.3-0.3-0.8-0.3-1.5c0-0.7,0.1-1.2,0.3-1.5c0.2-0.3,0.5-0.5,0.9-0.5c0.3,0,0.6,0.1,0.9,0.3v-0.5c-0.4-0.2-0.7-0.2-1-0.2
	c-0.6,0-1.1,0.2-1.5,0.6c-0.3,0.4-0.5,1-0.5,1.8C61.6,71.2,61.8,71.8,62.1,72.2"/>
<polygon points="68.1,70.6 68.1,70.1 66.5,70.1 66.5,68.6 68.3,68.6 68.3,68.1 65.7,68.1 65.7,72.8 68.3,72.8 68.3,72.3 66.5,72.3 
	66.5,70.6 "/>
<path d="M76.8,69.4c0-0.4-0.2-0.7-0.6-0.9c-0.4-0.2-0.9-0.3-1.6-0.3h-1v4.7h0.9v-2.1h0.3c0.6,0,1.2-0.1,1.5-0.4
	C76.6,70.1,76.8,69.8,76.8,69.4 M74.7,70.2h-0.2v-1.6l0.1,0c0.9,0,1.3,0.3,1.3,0.8C75.9,69.9,75.5,70.2,74.7,70.2"/>
<path d="M79.9,72l0.3,0.8H81l-0.3-0.9c-0.3-0.8-0.6-1.2-1-1.4l-0.1,0l0.1,0c0.5-0.2,0.8-0.5,0.8-1c0-0.4-0.2-0.7-0.5-0.9
	c-0.3-0.2-0.8-0.4-1.4-0.4h-0.8v4.7h0.9v-2.1l0,0c0.2,0,0.4,0.1,0.6,0.2C79.5,71,79.6,71.4,79.9,72 M78.6,70.2v-1.6h0.1
	c0.6,0,0.9,0.3,0.9,0.8C79.6,69.9,79.3,70.2,78.6,70.2L78.6,70.2z"/>
<path d="M85,68.7c-0.4-0.4-0.8-0.7-1.4-0.7c-0.6,0-1.1,0.2-1.4,0.7c-0.3,0.4-0.5,1-0.5,1.7c0,0.7,0.2,1.3,0.5,1.8
	c0.4,0.4,0.8,0.6,1.4,0.6c0.6,0,1-0.2,1.4-0.6c0.4-0.4,0.6-1,0.6-1.8C85.6,69.7,85.4,69.1,85,68.7 M84.4,71.8
	c-0.2,0.3-0.4,0.5-0.8,0.5c-0.3,0-0.6-0.2-0.8-0.5c-0.2-0.3-0.3-0.8-0.3-1.4c0-0.6,0.1-1.1,0.3-1.4c0.2-0.3,0.4-0.5,0.8-0.5
	c0.3,0,0.6,0.2,0.8,0.5c0.2,0.3,0.3,0.8,0.3,1.4C84.6,71,84.6,71.5,84.4,71.8"/>
<polygon points="88.6,68.1 87.9,71.3 87.8,71.3 87.1,68.1 86.2,68.1 87.5,72.8 88.1,72.8 89.5,68.1 "/>
<rect x="90.3" y="68.1" width="0.9" height="4.7"/>
<path d="M93.6,68.1h-1v4.7h1.2c0.8,0,1.4-0.2,1.8-0.6c0.4-0.4,0.6-1,0.6-1.8C96.1,68.9,95.3,68.1,93.6,68.1 M94.9,71.9
	c-0.2,0.3-0.7,0.4-1.3,0.4h-0.2v-3.7h0.2c0.6,0,1,0.1,1.2,0.4c0.2,0.3,0.3,0.8,0.3,1.4C95.2,71.1,95.1,71.6,94.9,71.9"/>
<polygon points="99.7,70.6 99.7,70.1 98.1,70.1 98.1,68.6 99.9,68.6 99.9,68.1 97.3,68.1 97.3,72.8 100,72.8 100,72.3 98.1,72.3 
	98.1,70.6 "/>
<path d="M103.5,72l0.3,0.8h0.9l-0.3-0.9c-0.3-0.8-0.6-1.2-1-1.4l-0.1,0l0.1,0c0.5-0.2,0.8-0.5,0.8-1c0-0.4-0.2-0.7-0.5-0.9
	c-0.3-0.2-0.8-0.4-1.4-0.4h-0.8v4.7h0.9v-2.1l0,0c0.2,0,0.4,0.1,0.6,0.2C103.1,71,103.3,71.4,103.5,72 M102.3,70.2v-1.6h0
	c0.6,0,0.9,0.3,0.9,0.8C103.2,69.9,102.9,70.2,102.3,70.2L102.3,70.2z"/>
<polygon points="106.4,67.8 105.4,67.8 105.4,68.6 105.6,69.5 106.1,69.5 106.4,68.5 "/>
<path d="M109.8,71.8c0-0.2-0.1-0.3-0.2-0.6c-0.1-0.2-0.3-0.5-0.7-0.9c-0.4-0.4-0.6-0.7-0.7-0.9c-0.1-0.2-0.1-0.3-0.1-0.4
	c0-0.3,0.3-0.5,0.8-0.5c0.2,0,0.4,0,0.6,0.1v-0.5c-0.8-0.2-1.4-0.1-1.8,0.2c-0.3,0.2-0.4,0.4-0.4,0.7c0,0.2,0.1,0.3,0.2,0.5
	c0.1,0.2,0.3,0.5,0.7,0.9c0.4,0.4,0.6,0.7,0.7,0.9c0.1,0.2,0.1,0.3,0.1,0.4c0,0.1-0.1,0.3-0.2,0.4c-0.3,0.2-0.8,0.2-1.3-0.1v0.5
	c0.3,0.1,0.6,0.2,0.9,0.2c0.4,0,0.8-0.1,1.1-0.3C109.6,72.3,109.8,72.1,109.8,71.8"/>
<path d="M116.6,71.7l0.3,1.1h0.8l-1.4-4.7h-0.9l-1.4,4.7h0.8l0.3-1.1H116.6z M115.8,69.1h0.1l0.6,2.1h-1.2L115.8,69.1z"/>
<path d="M120.3,72.1c0-0.1,0-0.3-0.1-0.4c-0.1-0.2-0.3-0.4-0.6-0.7c-0.4-0.3-0.5-0.5-0.5-0.7c0-0.1,0.1-0.3,0.4-0.3
	c0.2,0,0.4,0.1,0.7,0.2v-0.4c-0.6-0.3-1.2-0.2-1.5,0c-0.2,0.1-0.3,0.3-0.3,0.5c0,0.1,0,0.2,0.1,0.4c0.1,0.1,0.3,0.4,0.6,0.7
	c0.3,0.3,0.5,0.6,0.5,0.7c0,0.1-0.1,0.2-0.2,0.2c-0.3,0.2-0.7,0.1-1.2-0.2v0.5c0.7,0.3,1.3,0.3,1.8,0
	C120.2,72.5,120.3,72.3,120.3,72.1"/>
<path d="M123.1,72.1c0-0.1,0-0.3-0.1-0.4c-0.1-0.2-0.3-0.4-0.6-0.7c-0.4-0.3-0.5-0.5-0.5-0.7c0-0.1,0.1-0.3,0.4-0.3
	c0.2,0,0.4,0.1,0.7,0.2v-0.4c-0.6-0.3-1.2-0.2-1.5,0c-0.2,0.1-0.3,0.3-0.3,0.5c0,0.1,0,0.2,0.1,0.4c0.1,0.1,0.3,0.4,0.6,0.7
	c0.3,0.3,0.5,0.6,0.5,0.7c0,0.1,0,0.2-0.2,0.2c-0.3,0.2-0.7,0.1-1.2-0.2v0.5c0.7,0.3,1.3,0.3,1.8,0C123,72.5,123.1,72.3,123.1,72.1"
	/>
<path d="M126.6,70c-0.3-0.3-0.6-0.4-1.1-0.4c-0.5,0-0.8,0.1-1.1,0.4c-0.3,0.3-0.4,0.7-0.4,1.2c0,0.5,0.1,0.9,0.4,1.2
	c0.3,0.3,0.6,0.4,1.1,0.4c0.5,0,0.8-0.1,1.1-0.4c0.3-0.3,0.4-0.7,0.4-1.2C127,70.7,126.8,70.3,126.6,70 M125.5,72.4
	c-0.5,0-0.7-0.4-0.7-1.2c0-0.8,0.2-1.2,0.7-1.2c0.5,0,0.7,0.4,0.7,1.2C126.2,72,125.9,72.4,125.5,72.4"/>
<path d="M128.3,70.1c-0.3,0.3-0.5,0.7-0.5,1.2c0,0.5,0.2,0.8,0.5,1.1c0.3,0.3,0.7,0.4,1.2,0.4c0.3,0,0.6-0.1,0.8-0.2v-0.4
	c-0.2,0.1-0.4,0.1-0.6,0.1c-0.4,0-0.6-0.1-0.8-0.3c-0.2-0.2-0.3-0.5-0.3-0.9c0-0.4,0.1-0.7,0.3-0.9c0.2-0.2,0.5-0.3,0.8-0.3
	c0.2,0,0.4,0,0.6,0.1v-0.5c-0.3-0.1-0.5-0.1-0.7-0.1C129.1,69.6,128.7,69.8,128.3,70.1"/>
<path d="M131.6,68.1c-0.1,0-0.2,0-0.3,0.1c-0.1,0.1-0.1,0.2-0.1,0.3c0,0.1,0,0.2,0.1,0.3c0.2,0.2,0.5,0.2,0.6,0
	c0.1-0.1,0.1-0.2,0.1-0.3c0-0.1,0-0.2-0.1-0.3C131.8,68.1,131.7,68.1,131.6,68.1"/>
<rect x="131.2" y="69.7" width="0.8" height="3.1"/>
<path d="M133.2,72.6c0.4,0.3,1,0.3,1.6-0.2l0.1,0l0,0.1c0.1,0.2,0.3,0.4,0.6,0.4c0.2,0,0.4-0.1,0.6-0.2v-0.3
	c-0.2,0.1-0.3,0.1-0.3,0.1c-0.1,0-0.2,0-0.2-0.2v-1.8c0-0.2-0.1-0.4-0.4-0.6c-0.5-0.3-1.4-0.3-2.2,0.2v0.5c0.5-0.3,0.9-0.5,1.2-0.5
	c0.5,0,0.6,0.2,0.6,0.5v0.3l0,0c-0.7,0.3-1.2,0.5-1.5,0.6c-0.3,0.2-0.4,0.4-0.4,0.6C133,72.3,133.1,72.5,133.2,72.6 M134.8,71.1
	L134.8,71.1l0.1,0.9c0,0,0,0.1-0.2,0.2c-0.1,0.1-0.3,0.2-0.5,0.2c-0.1,0-0.2,0-0.3-0.1c-0.1-0.1-0.1-0.2-0.1-0.3
	C133.7,71.7,134.1,71.4,134.8,71.1"/>
<path d="M138,72.9c0.2,0,0.4,0,0.7-0.1v-0.4c-0.4,0.1-0.6,0.1-0.7,0c-0.1-0.1-0.1-0.2-0.1-0.4v-1.9h0.8v-0.4h-0.8v-0.8h0
	c-0.4,0.5-0.9,0.9-1.3,1.2h0.5v2.1C137.1,72.6,137.4,72.9,138,72.9"/>
<path d="M140.2,68.2c-0.1-0.1-0.2-0.1-0.3-0.1c-0.1,0-0.2,0-0.3,0.1c-0.1,0.1-0.1,0.2-0.1,0.3c0,0.1,0,0.2,0.1,0.3
	c0.2,0.2,0.5,0.2,0.7,0c0.1-0.1,0.1-0.2,0.1-0.3C140.4,68.3,140.3,68.3,140.2,68.2"/>
<rect x="139.5" y="69.7" width="0.8" height="3.1"/>
<path d="M143.9,70c-0.3-0.3-0.6-0.4-1.1-0.4c-0.5,0-0.8,0.1-1.1,0.4c-0.3,0.3-0.4,0.7-0.4,1.2c0,0.5,0.1,0.9,0.4,1.2
	c0.3,0.3,0.6,0.4,1.1,0.4c0.5,0,0.8-0.1,1.1-0.4c0.3-0.3,0.4-0.7,0.4-1.2C144.3,70.7,144.2,70.3,143.9,70 M142.8,72.4
	c-0.5,0-0.7-0.4-0.7-1.2c0-0.8,0.2-1.2,0.7-1.2c0.5,0,0.7,0.4,0.7,1.2C143.5,72,143.3,72.4,142.8,72.4"/>
<path d="M146.9,70c0.3,0,0.5,0.2,0.5,0.5v2.2h0.8v-2.2c0-0.3-0.1-0.5-0.3-0.7c-0.2-0.2-0.4-0.2-0.8-0.2c-0.4,0-0.7,0.1-0.9,0.4l0,0
	h-0.1v-0.3h-0.8v3.1h0.8v-2.3c0,0,0-0.1,0.2-0.2C146.5,70.1,146.7,70,146.9,70"/>
<path d="M153.1,73.6c-0.1,0.1-0.3,0.1-0.6,0.1c-0.1,0-0.2,0-0.4,0l0.1,0.5c1.2,0.1,1.9-0.3,1.9-1.2v-4.9h-0.9v5
	C153.3,73.3,153.2,73.5,153.1,73.6"/>
<path d="M155.6,72.6c0.4,0.3,1,0.3,1.6-0.2l0.1,0l0,0.1c0.1,0.2,0.3,0.4,0.6,0.4c0.2,0,0.4-0.1,0.6-0.2v-0.3
	c-0.2,0.1-0.3,0.1-0.3,0.1c-0.1,0-0.2,0-0.2-0.2v-1.8c0-0.2-0.1-0.4-0.4-0.6c-0.5-0.3-1.4-0.3-2.2,0.2v0.5c0.5-0.3,0.9-0.5,1.2-0.5
	c0.5,0,0.6,0.2,0.6,0.5v0.3l0,0c-0.7,0.3-1.2,0.5-1.5,0.6c-0.3,0.2-0.4,0.4-0.4,0.6C155.3,72.3,155.4,72.5,155.6,72.6 M157.1,71.1
	L157.1,71.1l0.1,0.9c0,0,0,0.1-0.2,0.2c-0.1,0.1-0.3,0.2-0.5,0.2c-0.1,0-0.2,0-0.3-0.1c-0.1-0.1-0.1-0.2-0.1-0.3
	C156,71.7,156.4,71.4,157.1,71.1"/>
<path d="M161.8,70.1c-0.3-0.3-0.6-0.5-1-0.5c-0.3,0-0.5,0.1-0.7,0.3l0,0H160v-0.2h-0.8v4.8h0.8v-1.9l0.1,0c0.2,0.2,0.4,0.3,0.7,0.3
	c0.4,0,0.7-0.1,1-0.4c0.3-0.3,0.4-0.7,0.4-1.1C162.2,70.8,162.1,70.4,161.8,70.1 M160.7,72.4c-0.2,0-0.4-0.1-0.6-0.3l0-1.7
	c0,0,0-0.1,0.2-0.2c0.1-0.1,0.2-0.1,0.4-0.1c0.6,0,0.8,0.4,0.8,1.2C161.4,72,161.2,72.4,160.7,72.4"/>
<path d="M163.3,72.6c0.4,0.3,1,0.3,1.6-0.2l0.1,0l0,0.1c0.1,0.2,0.3,0.4,0.6,0.4c0.2,0,0.4-0.1,0.6-0.2v-0.3
	c-0.2,0.1-0.3,0.1-0.3,0.1c-0.1,0-0.2,0-0.2-0.2v-1.8c0-0.2-0.1-0.4-0.4-0.6c-0.5-0.3-1.4-0.3-2.2,0.2v0.5c0.5-0.3,0.9-0.5,1.2-0.5
	c0.5,0,0.6,0.2,0.6,0.5v0.3l0,0c-0.7,0.3-1.2,0.5-1.5,0.6c-0.3,0.2-0.4,0.4-0.4,0.6C163,72.3,163.1,72.5,163.3,72.6 M164.9,71.1
	L164.9,71.1l0.1,0.9c0,0,0,0.1-0.2,0.2c-0.1,0.1-0.3,0.2-0.5,0.2c-0.1,0-0.3,0-0.3-0.1c-0.1-0.1-0.1-0.2-0.1-0.3
	C163.8,71.7,164.1,71.4,164.9,71.1"/>
<path d="M168.5,70c0.3,0,0.5,0.2,0.5,0.5v2.2h0.8v-2.2c0-0.3-0.1-0.5-0.3-0.7c-0.2-0.2-0.4-0.2-0.8-0.2c-0.4,0-0.7,0.1-0.9,0.4l0,0
	h-0.1v-0.3H167v3.1h0.8v-2.3c0,0,0-0.1,0.2-0.2C168.1,70.1,168.3,70,168.5,70"/>
</svg>
